<?xml version="1.0" encoding="UTF-8"?>
<svg xmlns="http://www.w3.org/2000/svg" xmlns:xlink="http://www.w3.org/1999/xlink" width="42px" height="42px" viewBox="0 0 42 42" version="1.1">
<defs>
<linearGradient id="linear0" gradientUnits="userSpaceOnUse" x1="2413.645" y1="2419.502" x2="3211.294" y2="3208.214" gradientTransform="matrix(0.0102539,0,0,0.0102539,0,0)">
<stop offset="0" style="stop-color:rgb(100%,33.333333%,23.921569%);stop-opacity:1;"/>
<stop offset="1" style="stop-color:rgb(100%,58.823529%,25.098039%);stop-opacity:1;"/>
</linearGradient>
<linearGradient id="linear1" gradientUnits="userSpaceOnUse" x1="2244.443" y1="3077.754" x2="3717.418" y2="2235.995" gradientTransform="matrix(0.0102539,0,0,0.0102539,0,0)">
<stop offset="0" style="stop-color:rgb(100%,33.333333%,23.921569%);stop-opacity:1;"/>
<stop offset="1" style="stop-color:rgb(100%,58.823529%,25.098039%);stop-opacity:1;"/>
</linearGradient>
<linearGradient id="linear2" gradientUnits="userSpaceOnUse" x1="2538.328" y1="2892.44" x2="2617.629" y2="563.745" gradientTransform="matrix(0.0102539,0,0,0.0102539,0,0)">
<stop offset="0" style="stop-color:rgb(100%,33.333333%,23.921569%);stop-opacity:1;"/>
<stop offset="1" style="stop-color:rgb(100%,58.823529%,25.098039%);stop-opacity:1;"/>
</linearGradient>
<linearGradient id="linear3" gradientUnits="userSpaceOnUse" x1="2239.866" y1="2952.95" x2="3737.793" y2="1455.289" gradientTransform="matrix(0.0102539,0,0,0.0102539,0,0)">
<stop offset="0" style="stop-color:rgb(100%,33.333333%,23.921569%);stop-opacity:1;"/>
<stop offset="1" style="stop-color:rgb(100%,58.823529%,25.098039%);stop-opacity:1;"/>
</linearGradient>
<linearGradient id="linear4" gradientUnits="userSpaceOnUse" x1="2272.61" y1="2558.601" x2="3093.249" y2="3379.785" gradientTransform="matrix(0.0102539,0,0,0.0102539,0,0)">
<stop offset="0" style="stop-color:rgb(100%,33.333333%,23.921569%);stop-opacity:1;"/>
<stop offset="0.4" style="stop-color:rgb(100%,41.176471%,24.313725%);stop-opacity:1;"/>
<stop offset="1" style="stop-color:rgb(100%,58.823529%,25.098039%);stop-opacity:1;"/>
</linearGradient>
<linearGradient id="linear5" gradientUnits="userSpaceOnUse" x1="1683.982" y1="2419.502" x2="886.333" y2="3208.214" gradientTransform="matrix(0.0102539,0,0,0.0102539,0,0)">
<stop offset="0" style="stop-color:rgb(100%,33.333333%,23.921569%);stop-opacity:1;"/>
<stop offset="1" style="stop-color:rgb(100%,58.823529%,25.098039%);stop-opacity:1;"/>
</linearGradient>
<linearGradient id="linear6" gradientUnits="userSpaceOnUse" x1="1853.184" y1="3077.754" x2="380.209" y2="2235.995" gradientTransform="matrix(0.0102539,0,0,0.0102539,0,0)">
<stop offset="0" style="stop-color:rgb(100%,33.72549%,23.921569%);stop-opacity:1;"/>
<stop offset="1" style="stop-color:rgb(100%,58.823529%,25.098039%);stop-opacity:1;"/>
</linearGradient>
<linearGradient id="linear7" gradientUnits="userSpaceOnUse" x1="1559.299" y1="2892.44" x2="1479.998" y2="563.745" gradientTransform="matrix(0.0102539,0,0,0.0102539,0,0)">
<stop offset="0" style="stop-color:rgb(100%,33.333333%,23.921569%);stop-opacity:1;"/>
<stop offset="1" style="stop-color:rgb(100%,58.823529%,25.098039%);stop-opacity:1;"/>
</linearGradient>
<linearGradient id="linear8" gradientUnits="userSpaceOnUse" x1="1857.761" y1="2952.95" x2="359.834" y2="1455.289" gradientTransform="matrix(0.0102539,0,0,0.0102539,0,0)">
<stop offset="0" style="stop-color:rgb(100%,33.333333%,23.921569%);stop-opacity:1;"/>
<stop offset="1" style="stop-color:rgb(100%,58.823529%,25.098039%);stop-opacity:1;"/>
</linearGradient>
<linearGradient id="linear9" gradientUnits="userSpaceOnUse" x1="1825.017" y1="2558.601" x2="1004.378" y2="3379.785" gradientTransform="matrix(0.0102539,0,0,0.0102539,0,0)">
<stop offset="0" style="stop-color:rgb(100%,33.333333%,23.921569%);stop-opacity:1;"/>
<stop offset="0.4" style="stop-color:rgb(100%,39.215686%,24.313725%);stop-opacity:1;"/>
<stop offset="1" style="stop-color:rgb(100%,58.823529%,25.098039%);stop-opacity:1;"/>
</linearGradient>
<linearGradient id="linear10" gradientUnits="userSpaceOnUse" x1="2058.356" y1="3719.284" x2="2058.356" y2="1385.676" gradientTransform="matrix(0.0102539,0,0,0.0102539,0,0)">
<stop offset="0" style="stop-color:rgb(100%,28.235294%,23.529412%);stop-opacity:1;"/>
<stop offset="0" style="stop-color:rgb(100%,28.235294%,23.529412%);stop-opacity:1;"/>
<stop offset="0.13" style="stop-color:rgb(100%,33.333333%,23.921569%);stop-opacity:1;"/>
<stop offset="0.37" style="stop-color:rgb(100%,46.27451%,24.313725%);stop-opacity:1;"/>
<stop offset="1" style="stop-color:rgb(100%,58.823529%,25.098039%);stop-opacity:1;"/>
</linearGradient>
<linearGradient id="linear11" gradientUnits="userSpaceOnUse" x1="2061.166" y1="3719.284" x2="2061.166" y2="1796.254" gradientTransform="matrix(0.0102539,0,0,0.0102539,0,0)">
<stop offset="0" style="stop-color:rgb(100%,33.333333%,23.921569%);stop-opacity:0.219608;"/>
<stop offset="0" style="stop-color:rgb(100%,33.333333%,23.921569%);stop-opacity:0.219608;"/>
<stop offset="0.04" style="stop-color:rgb(100%,38.431373%,24.313725%);stop-opacity:0.219608;"/>
<stop offset="0.16" style="stop-color:rgb(100%,51.764706%,24.705882%);stop-opacity:0.219608;"/>
<stop offset="0.28" style="stop-color:rgb(100%,62.745098%,25.490196%);stop-opacity:0.219608;"/>
<stop offset="0.42" style="stop-color:rgb(100%,70.980392%,25.882353%);stop-opacity:0.219608;"/>
<stop offset="0.57" style="stop-color:rgb(100%,76.862745%,25.882353%);stop-opacity:0.219608;"/>
<stop offset="0.74" style="stop-color:rgb(100%,80.392157%,26.27451%);stop-opacity:0.219608;"/>
<stop offset="1" style="stop-color:rgb(100%,81.568627%,26.27451%);stop-opacity:0.219608;"/>
</linearGradient>
</defs>
<g id="surface1">
<path style=" stroke:none;fill-rule:nonzero;fill:url(#linear0);" d="M 35.90625 28.976562 C 35.898438 28.945312 35.195312 28.695312 34.054688 28.585938 C 32.8125 28.46875 21.5 28.359375 21.28125 28.359375 C 21.28125 28.359375 30.070312 32.3125 32.789062 31.929688 C 35.460938 31.546875 35.921875 29.007812 35.90625 28.976562 Z M 35.90625 28.976562 "/>
<path style=" stroke:none;fill-rule:nonzero;fill:url(#linear1);" d="M 36.203125 22.25 C 36.023438 22.320312 35.007812 23.046875 34.414062 23.429688 C 33.320312 24.140625 32.148438 24.734375 30.953125 25.242188 C 26.289062 27.257812 21.28125 28.335938 21.28125 28.335938 C 21.28125 28.335938 32.015625 30.726562 35.210938 28.6875 C 38.382812 26.65625 37.742188 22.273438 37.734375 22.257812 C 37.71875 22.210938 37.023438 22.179688 36.960938 22.171875 C 36.796875 22.171875 36.390625 22.179688 36.203125 22.25 Z M 36.203125 22.25 "/>
<path style=" stroke:none;fill-rule:nonzero;fill:url(#linear2);" d="M 31.234375 18.882812 C 32.828125 6.03125 25.523438 4.617188 25.523438 4.617188 C 24.632812 5.390625 22.445312 8.8125 27.984375 17.640625 C 27.625 17.117188 26.90625 16.882812 26.90625 16.882812 C 28.757812 18.828125 28.875 21.375 27.5625 23.726562 C 26.242188 26.078125 23.890625 26.742188 21.28125 26.203125 L 21.28125 28.375 C 30.742188 27.132812 31.234375 18.882812 31.234375 18.882812 Z M 31.234375 18.882812 "/>
<path style=" stroke:none;fill-rule:nonzero;fill:url(#linear3);" d="M 21.28125 28.34375 C 21.28125 28.34375 28.632812 28.023438 30.664062 19.546875 C 30.664062 19.546875 31.492188 16.304688 32.460938 14.945312 C 32.460938 14.945312 32.289062 15.34375 32.304688 16.085938 C 32.304688 16.085938 32.304688 14.625 35.359375 11.960938 C 35.359375 11.960938 39.828125 17.5625 35.585938 23.515625 C 35.585938 23.515625 32.804688 28.78125 21.28125 28.34375 Z M 21.28125 28.34375 "/>
<path style=" stroke:none;fill-rule:nonzero;fill:url(#linear4);" d="M 33.03125 31.867188 C 32.71875 31.664062 32.351562 31.507812 32.023438 31.367188 C 31.609375 31.179688 31.1875 31.023438 30.765625 30.867188 C 29.75 30.507812 28.71875 30.195312 27.679688 29.90625 C 26.625 29.609375 25.570312 29.335938 24.515625 29.078125 C 23.703125 28.882812 22.898438 28.6875 22.085938 28.507812 C 21.796875 28.445312 21.570312 28.429688 21.28125 28.367188 C 21.28125 28.367188 26.5 33.21875 29.796875 33.890625 C 32.65625 34.476562 33.617188 32.429688 33.617188 32.398438 C 33.617188 32.375 33.507812 32.265625 33.375 32.140625 C 33.273438 32.039062 33.15625 31.945312 33.03125 31.867188 Z M 33.03125 31.867188 "/>
<path style=" stroke:none;fill-rule:nonzero;fill:url(#linear5);" d="M 6.109375 28.976562 C 6.125 28.945312 6.820312 28.695312 7.960938 28.585938 C 9.203125 28.46875 20.515625 28.359375 20.734375 28.359375 C 20.734375 28.359375 11.945312 32.3125 9.226562 31.929688 C 6.554688 31.546875 6.09375 29.007812 6.109375 28.976562 Z M 6.109375 28.976562 "/>
<path style=" stroke:none;fill-rule:nonzero;fill:url(#linear6);" d="M 5.8125 22.25 C 5.992188 22.320312 7.007812 23.046875 7.601562 23.429688 C 8.695312 24.140625 9.867188 24.734375 11.0625 25.242188 C 15.734375 27.257812 20.734375 28.335938 20.734375 28.335938 C 20.734375 28.335938 10 30.726562 6.804688 28.6875 C 3.632812 26.65625 4.273438 22.273438 4.28125 22.257812 C 4.296875 22.210938 4.992188 22.179688 5.0625 22.171875 C 5.226562 22.171875 5.625 22.179688 5.8125 22.25 Z M 5.8125 22.25 "/>
<path style=" stroke:none;fill-rule:nonzero;fill:url(#linear7);" d="M 10.78125 18.882812 C 9.1875 6.03125 16.492188 4.617188 16.492188 4.617188 C 17.382812 5.390625 19.570312 8.8125 14.03125 17.640625 C 14.390625 17.117188 15.109375 16.882812 15.109375 16.882812 C 13.257812 18.828125 13.140625 21.375 14.453125 23.726562 C 15.773438 26.078125 18.125 26.742188 20.734375 26.203125 L 20.734375 28.375 C 11.273438 27.132812 10.78125 18.882812 10.78125 18.882812 Z M 10.78125 18.882812 "/>
<path style=" stroke:none;fill-rule:nonzero;fill:url(#linear8);" d="M 20.734375 28.34375 C 20.734375 28.34375 13.382812 28.023438 11.351562 19.546875 C 11.351562 19.546875 10.523438 16.304688 9.554688 14.945312 C 9.554688 14.945312 9.726562 15.34375 9.710938 16.085938 C 9.710938 16.085938 9.710938 14.625 6.65625 11.960938 C 6.65625 11.960938 2.1875 17.5625 6.429688 23.515625 C 6.429688 23.515625 9.210938 28.78125 20.734375 28.34375 Z M 20.734375 28.34375 "/>
<path style=" stroke:none;fill-rule:nonzero;fill:url(#linear9);" d="M 8.984375 31.867188 C 9.296875 31.664062 9.671875 31.507812 10 31.367188 C 10.40625 31.179688 10.828125 31.023438 11.25 30.867188 C 12.265625 30.507812 13.304688 30.195312 14.335938 29.90625 C 15.390625 29.609375 16.445312 29.335938 17.507812 29.078125 C 18.3125 28.882812 19.117188 28.6875 19.929688 28.507812 C 20.21875 28.445312 20.445312 28.429688 20.734375 28.367188 C 20.734375 28.367188 15.546875 33.320312 12.257812 33.992188 C 9.390625 34.570312 8.398438 32.429688 8.398438 32.398438 C 8.398438 32.375 8.515625 32.265625 8.640625 32.140625 C 8.742188 32.039062 8.859375 31.945312 8.984375 31.867188 Z M 8.984375 31.867188 "/>
<path style=" stroke:none;fill-rule:nonzero;fill:url(#linear10);" d="M 17.414062 19.273438 C 17.414062 19.273438 17.742188 19.960938 19.8125 18.992188 C 20.65625 18.59375 21.054688 18.773438 21.085938 19.609375 C 21.015625 20.851562 19.375 22.109375 19.375 22.109375 C 19.375 22.109375 16.0625 24.585938 15.804688 26.429688 C 15.617188 27.726562 15.632812 29.039062 15.515625 30.34375 C 15.40625 31.460938 14.992188 32.539062 14.054688 33.21875 C 14.023438 33.242188 13.992188 33.265625 13.960938 33.289062 C 13.953125 33.296875 13.945312 33.296875 13.929688 33.304688 C 13.929688 33.304688 13.929688 33.3125 13.921875 33.3125 C 13.75 33.429688 13.5625 33.53125 13.367188 33.625 C 11.421875 34.484375 9.140625 33.265625 8.984375 33.1875 C 15.59375 39.726562 26.40625 39.890625 33.1875 33.015625 C 33.1875 33.015625 32.515625 33.421875 31.828125 33.632812 C 31.664062 33.679688 31.492188 33.71875 31.335938 33.742188 L 31.328125 33.742188 C 29.78125 34.023438 27.648438 33.828125 26.4375 30.78125 C 26.4375 30.78125 25.078125 28.476562 25.539062 25.3125 C 26 22.140625 25.28125 20.757812 25.28125 20.757812 C 25.28125 20.757812 24.953125 19.976562 24.15625 19.171875 C 23.453125 18.46875 21.21875 16.929688 23.289062 14.257812 C 23.289062 14.257812 21.328125 14.195312 19.46875 16.539062 C 19.460938 16.539062 17.734375 18.765625 15.421875 18.898438 C 15.695312 19.265625 16.242188 19.578125 17.414062 19.273438 Z M 17.414062 19.273438 "/>
<path style=" stroke:none;fill-rule:nonzero;fill:url(#linear11);" d="M 26.148438 37.335938 C 24.570312 37.835938 22.9375 38.125 21.273438 38.140625 C 19.507812 38.148438 17.59375 37.859375 15.921875 37.351562 C 15.921875 37.351562 16.40625 37.09375 16.851562 36.765625 C 17.757812 36.078125 18.445312 35.148438 18.6875 34 C 18.945312 32.789062 18.882812 31.515625 18.664062 30.304688 C 18.304688 28.328125 18.039062 26.570312 19.179688 24.773438 C 19.46875 24.304688 19.84375 23.921875 20.171875 23.492188 C 20.796875 22.671875 21.257812 21.679688 21.601562 20.710938 C 21.796875 20.164062 22.203125 18.992188 21.429688 18.6875 C 21.171875 18.578125 20.757812 18.617188 20.507812 18.734375 C 23.148438 17.460938 23.851562 20.453125 23.851562 20.453125 C 24.40625 22.164062 23.992188 24.078125 23.265625 25.671875 C 22.5 27.367188 22.6875 29.28125 22.96875 31.0625 C 23.125 32.070312 23.34375 33.09375 23.679688 34.054688 C 24.085938 35.265625 24.757812 36.148438 25.429688 36.78125 C 25.65625 36.992188 25.890625 37.15625 26.148438 37.335938 Z M 26.148438 37.335938 "/>
</g>
</svg>
